# xmcd
#
# Track frame offsets: 
#        150
#        12932
#        25781
#        38334
#        51859
#        62011
#        73432
#        86176
#        97661
#        111708
#        123333
#        135119
#        146532
#        158335
#        170618
#        186274
#        199424
#        211168
#        224064
#        237598
#        248634
#        262205
#        275699
#        288890
#
# Disc length: 4006 seconds
#
# Revision: 0
# Processed by: cddbd v1.5.2PL0 Copyright (c) Steve Scherf et al.
# Submitted via: ExactAudioCopyFreeDBPlugin 1.0
#
DISCID=6a0fa418
DTITLE=Various Artist - Wood's Famous Blind Jubilee Singers and Cotton Belt Qua
DTITLE=rtet: Complete Recordings
DYEAR=1996
DGENRE=Gospel
TTITLE0=Wood's Famous Blind Jubilee Singers - Lord I'm Troubled
TTITLE1=Wood's Famous Blind Jubilee Singers - Lord I'm Troubled
TTITLE2=Wood's Famous Blind Jubilee Singers - Lord Have Mercy
TTITLE3=Wood's Famous Blind Jubilee Singers - One Morning Soon
TTITLE4=Wood's Famous Blind Jubilee Singers - Bright Brown Crown
TTITLE5=Wood's Famous Blind Jubilee Singers - The Little Wheel Is Roll
TTITLE5=ing in My Heart
TTITLE6=Wood's Famous Blind Jubilee Singers - Run to My Lord
TTITLE7=Wood's Famous Blind Jubilee Singers - This Train Is Bound for 
TTITLE7=Glory
TTITLE8=Wood's Famous Blind Jubilee Singers - Seek and Ye Shall Find
TTITLE9=Wood's Famous Blind Jubilee Singers - You Must Be Converted
TTITLE10=Wood's Famous Blind Jubilee Singers - The Lord's Prayer
TTITLE11=Wood's Famous Blind Jubilee Singers - The Lord's Prayer
TTITLE12=Cotton Belt Quartet - I'm Gonna Shout All Over God's Heaven
TTITLE13=Cotton Belt Quartet - We'll Be Ready When the Great Day Comes
TTITLE14=Cotton Belt Quartet - Lord, I've Done What You Told Me To
TTITLE15=Cotton Belt Quartet - Golden Slippers
TTITLE16=Cotton Belt Quartet - Give Me That Old Time Religion
TTITLE17=Cotton Belt Quartet - In My Heart
TTITLE18=Cotton Belt Quartet - Swing Low, Sweet Chariot
TTITLE19=Cotton Belt Quartet - I Couldn't Hear Nobody Pray
TTITLE20=Cotton Belt Quartet - Steal Away to Jesus
TTITLE21=Cotton Belt Quartet - Go Down Moses
TTITLE22=Cotton Belt Quartet - Hallelujah
TTITLE23=Cotton Belt Quartet - Talk About Dixie
EXTD=
EXTT0=
EXTT1=
EXTT2=
EXTT3=
EXTT4=
EXTT5=
EXTT6=
EXTT7=
EXTT8=
EXTT9=
EXTT10=
EXTT11=
EXTT12=
EXTT13=
EXTT14=
EXTT15=
EXTT16=
EXTT17=
EXTT18=
EXTT19=
EXTT20=
EXTT21=
EXTT22=
EXTT23=
PLAYORDER=
